<svg xmlns="http://www.w3.org/2000/svg" width="489.825" height="135.958" viewBox="0 0 489.825 135.958">
  <g id="BFD_Logo_Vertical_FullWhite" transform="translate(-28.796 -293.986)">
    <path id="Path_198" data-name="Path 198" d="M103.18,300.342a1,1,0,0,1-.745-.292.952.952,0,0,1-.275-.7V278.168a1.022,1.022,0,0,1,.275-.7.953.953,0,0,1,.713-.292H115.2a1.022,1.022,0,0,1,.7.275.952.952,0,0,1,.292.713.932.932,0,0,1-.292.68.952.952,0,0,1-.7.275h-11.16l.13-.194v8.8l-.162-.292h9.7a1.022,1.022,0,0,1,.7.275.953.953,0,0,1,.292.713.933.933,0,0,1-.292.68.952.952,0,0,1-.7.275h-9.767l.227-.292v10.253a1.022,1.022,0,0,1-.275.7.953.953,0,0,1-.713.292Z" transform="translate(45.465 129.311)" fill="#fff"/>
    <path id="Path_199" data-name="Path 199" d="M122.283,279.8l-8.034,19.955a1.084,1.084,0,0,1-.356.5.871.871,0,0,1-.535.162.99.99,0,0,1-.729-.243.83.83,0,0,1-.227-.616,1.231,1.231,0,0,1,.032-.4l8.73-21.38a.923.923,0,0,1,.373-.518,1.113,1.113,0,0,1,.583-.146,1.063,1.063,0,0,1,.615.178,1.121,1.121,0,0,1,.373.486l8.7,21.283a1.118,1.118,0,0,1,.065.4.882.882,0,0,1-.292.713,1.073,1.073,0,0,1-.7.243,1,1,0,0,1-.583-.178,1.294,1.294,0,0,1-.389-.486l-8.244-20.117.6.162Zm-6.123,13.9.826-1.96h10.253l.4,1.96Z" transform="translate(51.808 129.268)" fill="#fff"/>
    <path id="Path_200" data-name="Path 200" d="M127.9,277.188a1.207,1.207,0,0,1,.891.421l9.135,13.7-.891-.032,9.168-13.67a.956.956,0,0,1,.891-.437.983.983,0,0,1,.68.275.917.917,0,0,1,.275.713v21.186a.924.924,0,0,1-.308.7,1.053,1.053,0,0,1-.745.292.989.989,0,0,1-.729-.292.968.968,0,0,1-.292-.7V280.184l.6.065L138.2,292.932a.706.706,0,0,1-.308.308.957.957,0,0,1-1.247-.308l-8.406-12.812.632-.437v19.663a1.022,1.022,0,0,1-.275.7.952.952,0,0,1-.713.292.893.893,0,0,1-.7-.292,1.006,1.006,0,0,1-.259-.7V278.16a1.045,1.045,0,0,1,.275-.68.91.91,0,0,1,.713-.308Z" transform="translate(60.815 129.303)" fill="#fff"/>
    <path id="Path_201" data-name="Path 201" d="M145.873,299.315a1.1,1.1,0,0,1-.34.729,1.033,1.033,0,0,1-.713.292.989.989,0,0,1-.761-.292,1.032,1.032,0,0,1-.259-.729v-21.1a.989.989,0,0,1,.292-.729,1.077,1.077,0,0,1,1.474,0,.944.944,0,0,1,.308.729v21.1Z" transform="translate(71.27 129.317)" fill="#fff"/>
    <path id="Path_202" data-name="Path 202" d="M161.663,298.388a1.044,1.044,0,0,1,.729.275.932.932,0,0,1,.292.68.953.953,0,0,1-.292.713.976.976,0,0,1-.729.275H149.888a.968.968,0,0,1-.988-.988V278.158a.968.968,0,0,1,.292-.7,1.077,1.077,0,0,1,1.474,0,.924.924,0,0,1,.308.7v20.781l-.632-.567h11.322Z" transform="translate(74.431 129.305)" fill="#fff"/>
    <path id="Path_203" data-name="Path 203" d="M174.512,277.1a.889.889,0,0,1,.713.34.988.988,0,0,1,.275.664.718.718,0,0,1-.049.324.822.822,0,0,1-.146.292l-7.775,10.69.4-1.3V299.4a.968.968,0,0,1-.292.7,1.057,1.057,0,0,1-1.458,0,.968.968,0,0,1-.292-.7V288.357l.194.794-7.58-10.366a1.217,1.217,0,0,1-.194-.34,1.391,1.391,0,0,1-.065-.34.889.889,0,0,1,.34-.713,1.072,1.072,0,0,1,.713-.275,1.011,1.011,0,0,1,.826.47l7.111,9.7-.5-.065,6.916-9.589a1.019,1.019,0,0,1,.858-.5Z" transform="translate(80.225 129.262)" fill="#fff"/>
    <path id="Path_204" data-name="Path 204" d="M186.191,277.186a9.346,9.346,0,0,1,4.276.923,8.568,8.568,0,0,1,3.029,2.559,10.876,10.876,0,0,1,1.782,3.725,16.861,16.861,0,0,1,.583,4.373,15.524,15.524,0,0,1-1.037,5.8,9.31,9.31,0,0,1-3.175,4.2,8.916,8.916,0,0,1-5.442,1.571h-8.439a.968.968,0,0,1-.988-.988V278.158a1.022,1.022,0,0,1,.275-.7.953.953,0,0,1,.713-.292h8.439Zm-.324,21.218a6.934,6.934,0,0,0,7.062-4.794,14.065,14.065,0,0,0,.81-4.843,14.222,14.222,0,0,0-.453-3.644,9.141,9.141,0,0,0-1.393-3.094,6.748,6.748,0,0,0-2.446-2.122,7.75,7.75,0,0,0-3.6-.777h-7.24l.227-.259v19.858l-.194-.324h7.208Z" transform="translate(91.708 129.305)" fill="#fff"/>
    <path id="Path_205" data-name="Path 205" d="M192.448,277.192h12.115a1.043,1.043,0,0,1,.729.275.952.952,0,0,1,.292.713.893.893,0,0,1-.292.7,1.032,1.032,0,0,1-.729.259H193.209l.34-.567v9.3l-.373-.437h9.9a.989.989,0,0,1,.729.292.968.968,0,0,1,.292.7.893.893,0,0,1-.292.7,1.032,1.032,0,0,1-.729.259h-9.832l.292-.324v9.524l-.162-.194h11.192a.989.989,0,0,1,.729.292.968.968,0,0,1,.292.7.893.893,0,0,1-.292.7,1.032,1.032,0,0,1-.729.259H192.448a.968.968,0,0,1-.988-.988V278.148a1.022,1.022,0,0,1,.275-.7.953.953,0,0,1,.713-.292Z" transform="translate(100.806 129.299)" fill="#fff"/>
    <path id="Path_206" data-name="Path 206" d="M220,277.18a.868.868,0,0,1,.68.259.96.96,0,0,1,.243.664v21.186a1,1,0,0,1-.308.778,1.016,1.016,0,0,1-.713.275,1.488,1.488,0,0,1-.454-.081.661.661,0,0,1-.34-.243L204.35,280.16l.567-.324v19.631a.856.856,0,0,1-.259.632.9.9,0,0,1-.664.259.868.868,0,0,1-.68-.259.908.908,0,0,1-.243-.632V278.184a.99.99,0,0,1,.275-.729.967.967,0,0,1,.68-.259,1.575,1.575,0,0,1,.437.081.616.616,0,0,1,.356.275l14.594,19.663-.34.6v-19.7A.887.887,0,0,1,220,277.2Z" transform="translate(108.001 129.311)" fill="#fff"/>
    <path id="Path_207" data-name="Path 207" d="M217.7,279.059a1.007,1.007,0,0,1-.7-.259.872.872,0,0,1-.292-.664.893.893,0,0,1,.292-.7,1.007,1.007,0,0,1,.7-.259h15.727a1.032,1.032,0,0,1,.729.259.893.893,0,0,1,.292.7.837.837,0,0,1-.292.68,1.1,1.1,0,0,1-.729.243Zm7.872,21.283a1.038,1.038,0,0,1-.761-.292.968.968,0,0,1-.292-.7V278.281h2.089v21.073a.968.968,0,0,1-.292.7.989.989,0,0,1-.729.292Z" transform="translate(116.454 129.311)" fill="#fff"/>
    <path id="Path_208" data-name="Path 208" d="M238.833,279.8,230.8,299.754a1.084,1.084,0,0,1-.356.5.871.871,0,0,1-.535.162.99.99,0,0,1-.729-.243.83.83,0,0,1-.227-.616,1.231,1.231,0,0,1,.032-.4l8.73-21.38a.923.923,0,0,1,.373-.518,1.113,1.113,0,0,1,.583-.146,1.063,1.063,0,0,1,.616.178,1.121,1.121,0,0,1,.373.486l8.7,21.283a1.118,1.118,0,0,1,.065.4.882.882,0,0,1-.292.713,1.073,1.073,0,0,1-.7.243,1,1,0,0,1-.583-.178,1.294,1.294,0,0,1-.389-.486l-8.244-20.117.6.162Zm-6.123,13.9.826-1.96h10.253l.4,1.96Z" transform="translate(124.036 129.268)" fill="#fff"/>
    <path id="Path_209" data-name="Path 209" d="M256.243,298.388a1.044,1.044,0,0,1,.729.275.932.932,0,0,1,.292.68.952.952,0,0,1-.292.713.976.976,0,0,1-.729.275H244.468a.968.968,0,0,1-.988-.988V278.158a.968.968,0,0,1,.292-.7,1.077,1.077,0,0,1,1.474,0,.924.924,0,0,1,.308.7v20.781l-.632-.567h11.322Z" transform="translate(133.043 129.305)" fill="#fff"/>
    <path id="Path_210" data-name="Path 210" d="M277.425,279.021a.982.982,0,0,1,.243,1.49.685.685,0,0,1-.583.34,1.654,1.654,0,0,1-.713-.146,10.32,10.32,0,0,0-2.689-1.3,10.111,10.111,0,0,0-3.077-.47,9.651,9.651,0,0,0-3.758.729,9.053,9.053,0,0,0-3.029,2.057,9.582,9.582,0,0,0-2.008,3.142,10.655,10.655,0,0,0-.713,4,11.086,11.086,0,0,0,.729,4.082,9.317,9.317,0,0,0,2.041,3.158,9.129,9.129,0,0,0,3.029,2.025,9.69,9.69,0,0,0,3.709.7,9.931,9.931,0,0,0,3.061-.47,11.773,11.773,0,0,0,2.7-1.263,1.073,1.073,0,0,1,.7-.146,1,1,0,0,1,.826,1.166.828.828,0,0,1-.437.632,11.6,11.6,0,0,1-1.96,1,14.054,14.054,0,0,1-2.381.745,12.128,12.128,0,0,1-2.51.259,11.893,11.893,0,0,1-4.487-.858,11.166,11.166,0,0,1-3.709-2.43,11.458,11.458,0,0,1-2.527-3.758,12.372,12.372,0,0,1-.923-4.859,11.9,11.9,0,0,1,.907-4.73,11.722,11.722,0,0,1,2.494-3.758,11.5,11.5,0,0,1,8.244-3.385,12.482,12.482,0,0,1,3.644.534,11.442,11.442,0,0,1,3.175,1.49Z" transform="translate(142.637 129.187)" fill="#fff"/>
    <path id="Path_211" data-name="Path 211" d="M281.823,279.8l-8.034,19.955a1.084,1.084,0,0,1-.356.5.871.871,0,0,1-.534.162.99.99,0,0,1-.729-.243.83.83,0,0,1-.227-.616,1.231,1.231,0,0,1,.032-.4l8.73-21.38a.923.923,0,0,1,.373-.518,1.113,1.113,0,0,1,.583-.146,1.063,1.063,0,0,1,.615.178,1.121,1.121,0,0,1,.373.486l8.7,21.283a1.118,1.118,0,0,1,.065.4.882.882,0,0,1-.292.713,1.073,1.073,0,0,1-.7.243,1,1,0,0,1-.583-.178,1.294,1.294,0,0,1-.389-.486l-8.244-20.117.6.162ZM275.7,293.7l.826-1.96h10.253l.4,1.96Z" transform="translate(150.678 129.268)" fill="#fff"/>
    <path id="Path_212" data-name="Path 212" d="M287.578,300.342a1.156,1.156,0,0,1-.81-.292.924.924,0,0,1-.308-.7V278.168a1.022,1.022,0,0,1,.275-.7.953.953,0,0,1,.713-.292h8.941a6.955,6.955,0,0,1,3.369.81,5.954,5.954,0,0,1,2.332,2.235,6.2,6.2,0,0,1,.842,3.239,6.433,6.433,0,0,1-.534,2.656,5.749,5.749,0,0,1-1.49,2.057,6.783,6.783,0,0,1-2.154,1.28l-1.15-.4a5.173,5.173,0,0,1,2.284.81,4.921,4.921,0,0,1,1.7,1.846,6.018,6.018,0,0,1,.68,2.8,17.529,17.529,0,0,0,.146,2.219,3.838,3.838,0,0,0,.34,1.2,1.866,1.866,0,0,0,.6.632.986.986,0,0,1,.454.567.816.816,0,0,1-.081.7.79.79,0,0,1-.4.389,1.271,1.271,0,0,1-.534.113,1.1,1.1,0,0,1-.5-.13,3.387,3.387,0,0,1-.956-.826,4.622,4.622,0,0,1-.777-1.652,11.56,11.56,0,0,1-.308-3.045,4.681,4.681,0,0,0-.421-2.106,3.474,3.474,0,0,0-1.053-1.28,3.889,3.889,0,0,0-1.425-.632,6.839,6.839,0,0,0-1.474-.162h-7.71l.373-.5v9.362a1.006,1.006,0,0,1-.259.7.893.893,0,0,1-.7.292Zm.6-11.711h8.309a4.559,4.559,0,0,0,2.106-.729,4.851,4.851,0,0,0,1.6-1.766,5.33,5.33,0,0,0,.632-2.624,4.14,4.14,0,0,0-1.28-3.126,4.587,4.587,0,0,0-3.32-1.247h-7.9l.227-.437v10.4l-.373-.47Z" transform="translate(159.679 129.311)" fill="#fff"/>
    <path id="Path_213" data-name="Path 213" d="M301.138,277.192h12.116a1.044,1.044,0,0,1,.729.275.952.952,0,0,1,.292.713.893.893,0,0,1-.292.7,1.032,1.032,0,0,1-.729.259H301.9l.34-.567v9.3l-.373-.437h9.9a.989.989,0,0,1,.729.292.968.968,0,0,1,.292.7.893.893,0,0,1-.292.7,1.032,1.032,0,0,1-.729.259h-9.832l.292-.324v9.524l-.162-.194h11.192a.989.989,0,0,1,.729.292.968.968,0,0,1,.292.7.893.893,0,0,1-.292.7,1.032,1.032,0,0,1-.729.259H301.138a.968.968,0,0,1-.988-.988V278.148a1.022,1.022,0,0,1,.275-.7.953.953,0,0,1,.713-.292Z" transform="translate(168.163 129.299)" fill="#fff"/>
    <path id="Path_214" data-name="Path 214" d="M68.826,314.184c0,4.47,4.211,9.087,13.687,9.087,17.509,0,35.666-14.221,35.666-30.4,0-12.763-15.533-17.639-18.3-17.639-2.106,0-6.706,1.587-9.864,1.587-3.547,0-4.746-1.312-4.746-2.77,0-1.587,1.846-2.77,4.746-2.77,2.235,0,6.187.923,7.758.923,11.063,0,44.882-13.962,44.882-36.589,0-14.869-12.634-24.62-39.359-24.62-37.254,0-70.814,20.133-70.814,39.23,0,8.552,5.394,13.168,13.168,13.168,4.875,0,8.034-2.235,8.957-2.235a.629.629,0,0,1,.664.664c0,.923-4.47,4.082-10.933,4.082-8.163,0-15.792-5-15.533-15.533.389-21.461,34.613-42.647,74.507-42.647,29.349,0,42.777,11.063,42.777,27.778,0,24.215-33.561,37.124-40.023,38.306,0,0,15.533,4.6,15.533,19.08,0,18.821-19.485,33.561-39.23,33.561-11.451,0-17.25-5.928-17.25-11.986,0-12.893,18.821-18.821,40.542-18.821,1.442,0,2.494.389,2.494,1.182s-.664,1.053-2.494,1.053c-19.356,0-36.865,6.058-36.865,16.327Zm40.282-89.246c0,.794-.389,1.312-1.976,2.106-13.039,6.576-46.6,46.194-46.6,69.243,0,.794-.259,1.182-.923,1.182-1.182,0-2.365-1.182-2.365-3.029,0-24.344,42.258-71.073,50.146-71.073a1.73,1.73,0,0,1,1.717,1.571Z" transform="translate(0 86.266)" fill="#fff"/>
    <path id="Path_215" data-name="Path 215" d="M109.4,244.161c1.571-3.158,4.082-11.581,6.851-11.581a2.793,2.793,0,0,1,2.494,2.235c0,1.976-5.653,7.111-5.653,9.216,0,.923,5.264,4.082,7.9,5.523,1.442.664,1.846,1.312,1.846,2.365,0,5.653-11.451,13.946-11.451,21.591a3.912,3.912,0,0,0,4.211,4.082c5.928,0,13.816-6.851,20.668-14.48,0,0,.664-.794,1.312-.794a1.179,1.179,0,0,1,1.182,1.182,2.86,2.86,0,0,1-.664,1.312c-7.37,8.034-16.327,15.533-23.292,15.533-3.693,0-6.851-2.494-6.851-6.576,0-8.163,10.917-16.051,10.917-21.056,0-.794-.664-1.182-1.571-1.846-2.64-1.846-5-3.288-5.8-3.288-.535,0-.794.389-1.571,1.442-1.976,2.77-7.775,10.269-12.634,15.792a2.314,2.314,0,0,1-1.312.664,1.067,1.067,0,0,1-1.182-1.053,2.86,2.86,0,0,1,.664-1.312c4.47-5,11.84-14.869,13.946-18.951Z" transform="translate(40.91 101.672)" fill="#fff"/>
    <path id="Path_216" data-name="Path 216" d="M142.657,271.149c-4.341,3.823-9.346,6.317-13.557,6.317-5.653,0-10.01-3.823-10.01-11.063a23.551,23.551,0,0,1,6.058-15.922c1.442-8.034,10.01-14.092,17.639-14.092,6.317,0,11.322,4.211,11.322,13.168,0,6.576-3.823,13.557-8.811,18.951h.923c5.523,0,11.192-2.64,16.051-7.758,0,0,.664-.794,1.312-.794a1.179,1.179,0,0,1,1.182,1.182,2.86,2.86,0,0,1-.664,1.312c-5.928,6.058-12.634,8.827-18.562,8.827a20.769,20.769,0,0,1-2.9-.13Zm-3.693-.923c-6.851-2.235-12.115-7.775-13.557-13.946a20,20,0,0,0-2.64,10.139c0,5.523,2.365,7.9,6.981,7.9,2.77,0,6.058-1.571,9.216-4.082Zm2.64-2.235c5-5,9.087-11.986,9.087-18.432,0-6.851-3.952-10.01-8.034-10.01-3.693,0-8.827,2.365-11.84,6.058a23.853,23.853,0,0,1,12.115-3.823c1.182,0,2.106.259,2.106,1.053s-.518.923-1.442,1.053a25.746,25.746,0,0,0-15.4,8.552c0,6.851,5.394,13.557,13.427,15.533Z" transform="translate(55.957 104.033)" fill="#fff"/>
    <path id="Path_217" data-name="Path 217" d="M170.446,261.636c-5.135,5.928-15.144,15.533-21.85,15.533-3.547,0-6.576-2.365-6.576-6.851,0-12.893,18.692-30.677,33.042-30.677,6.187,0,8.957,3.288,8.957,6.576,0,2.365-1.587,4.211-2.365,4.211a.7.7,0,0,1-.794-.794,23.722,23.722,0,0,0,.389-2.64c0-1.846-1.053-4.47-5-4.47-14.48,0-30.677,16.975-30.677,27.778,0,2.77,1.312,3.823,3.418,3.823,5.523,0,14.351-8.293,18.692-13.557,3.547-4.211,6.058-8.293,7.24-8.293a1.746,1.746,0,0,1,1.717,1.717c0,.794-2.64,3.952-2.64,8.552,0,4.875,2.235,7.111,5.653,7.111,3.693,0,8.682-3.288,15.533-10.917,0,0,.664-.794,1.182-.794a1.2,1.2,0,0,1,1.312,1.182,2.86,2.86,0,0,1-.664,1.312c-7.37,8.034-13.168,11.986-18.027,11.986s-8.552-4.47-8.552-10.787Z" transform="translate(70.167 106.047)" fill="#fff"/>
    <path id="Path_218" data-name="Path 218" d="M211.031,284.583c9.216,0,19.744-12.5,19.744-12.5s.664-.794,1.182-.794a1.2,1.2,0,0,1,1.312,1.182,2.86,2.86,0,0,1-.664,1.312S220.62,287.6,210.756,287.6c-5.134,0-8.957-2.9-9.087-9.734-8.423,7.5-16.2,12.634-21.056,12.634a8.351,8.351,0,0,1-8.293-8.682c0-12.893,16.715-27.908,27.114-27.908,4.082,0,6.187,1.717,7.111,2.77,6.576-17.9,18.432-38.565,28.831-38.565,3.288,0,5.8,2.106,5.8,6.187,0,8.811-18.432,33.69-35.942,50.276a19.863,19.863,0,0,0-.13,2.64c0,5.928,3.158,7.37,5.928,7.37Zm-9.087-10.528a78.277,78.277,0,0,1,3.693-14.48c-.794-1.312-2.235-2.9-5.653-2.9-8.957,0-24.215,14.221-24.215,25.543a5.01,5.01,0,0,0,5.134,5.264c4.6,0,12.5-5.523,21.056-13.427Zm4.082-3.952c15.792-15.792,32.119-37.772,32.119-46.065a2.8,2.8,0,0,0-3.029-2.9C224.459,221.139,209.978,252.869,206.026,270.1Z" transform="translate(88.944 92.704)" fill="#fff"/>
    <path id="Path_219" data-name="Path 219" d="M271.064,274.771c-3.418,0-6.706-2.365-6.706-6.317,0-6.058,5.8-12.245,5.8-16.456a2.356,2.356,0,0,0-2.64-2.365c-5.8,0-19.356,11.986-26.191,18.3-1.846,1.717-2.9,2.9-3.823,2.9a1.63,1.63,0,0,1-1.571-1.717c0-4.211,15.4-19.615,15.4-24.49,0-1.717-1.053-2.77-3.029-2.77-8.293,0-29.754,17.9-40.412,30.807-1.442,1.587-2.106,2.494-3.029,2.494a2.252,2.252,0,0,1-1.976-2.106c0-1.442,2.106-5,6.317-11.986,5.523-9.216,16.715-21.591,18.173-21.591a1.845,1.845,0,0,1,1.717,1.717c0,.518-.518,1.053-1.312,1.846-4.6,4.6-10.658,10.787-20.279,26.466,9.6-12.115,31.066-30.677,41.465-30.677a5.723,5.723,0,0,1,5.928,5.8c0,5.264-10.01,14.61-11.986,18.562,4.082-3.693,17.639-16.586,25.673-16.586a5.027,5.027,0,0,1,5.134,5c0,4.746-5.653,11.711-5.653,16.586,0,2.365,1.717,3.823,4.211,3.823,8.682,0,19.615-12.763,19.615-12.763s.664-.794,1.312-.794a1.179,1.179,0,0,1,1.182,1.182,2.86,2.86,0,0,1-.664,1.312s-11.84,13.816-22.644,13.816Z" transform="translate(107.889 105.545)" fill="#fff"/>
    <path id="Path_220" data-name="Path 220" d="M280.077,271.149c-4.341,3.823-9.346,6.317-13.557,6.317-5.653,0-10.01-3.823-10.01-11.063a23.552,23.552,0,0,1,6.058-15.922c1.442-8.034,10.01-14.092,17.639-14.092,6.317,0,11.322,4.211,11.322,13.168,0,6.576-3.823,13.557-8.811,18.951h.923c5.523,0,11.192-2.64,16.051-7.758,0,0,.664-.794,1.312-.794a1.179,1.179,0,0,1,1.182,1.182,2.86,2.86,0,0,1-.664,1.312c-5.928,6.058-12.634,8.827-18.562,8.827a20.77,20.77,0,0,1-2.9-.13Zm-3.693-.923c-6.851-2.235-12.116-7.775-13.557-13.946a20,20,0,0,0-2.64,10.139c0,5.523,2.365,7.9,6.981,7.9,2.77,0,6.058-1.571,9.216-4.082Zm2.64-2.235c5-5,9.087-11.986,9.087-18.432,0-6.851-3.952-10.01-8.034-10.01-3.693,0-8.827,2.365-11.84,6.058a23.853,23.853,0,0,1,12.116-3.823c1.182,0,2.106.259,2.106,1.053s-.518.923-1.442,1.053a25.746,25.746,0,0,0-15.4,8.552c0,6.851,5.394,13.557,13.427,15.533Z" transform="translate(141.118 104.033)" fill="#fff"/>
    <path id="Path_221" data-name="Path 221" d="M287.928,252.849c1.442-8.034,10.01-14.092,17.639-14.092,6.317,0,11.322,4.211,11.322,13.168,0,5.653-2.77,11.711-6.706,16.715,8.552-1.976,15.922-11.581,22.239-24.49,1.571-3.158,4.082-11.581,6.851-11.581a2.793,2.793,0,0,1,2.494,2.235c0,1.976-5.653,7.111-5.653,9.216,0,.923,5.264,4.082,7.9,5.523,1.442.664,1.846,1.312,1.846,2.365,0,5.653-11.451,13.946-11.451,21.591a3.912,3.912,0,0,0,4.211,4.082c5.928,0,13.816-6.851,20.668-14.48,0,0,.664-.794,1.312-.794a1.179,1.179,0,0,1,1.182,1.182,2.86,2.86,0,0,1-.664,1.312c-7.37,8.034-16.327,15.533-23.292,15.533-3.693,0-6.851-2.494-6.851-6.576,0-8.163,10.933-16.051,10.933-21.056,0-.794-.664-1.182-1.587-1.846-2.64-1.846-5-3.288-5.8-3.288-.534,0-.923.389-1.587,1.442-5.928,10.917-13.557,21.591-25.268,22.385-4.875,5-10.787,8.423-15.792,8.423-5.653,0-10.01-3.823-10.01-11.063a23.551,23.551,0,0,1,6.058-15.922Zm15.533,18.432c-7.24-1.053-13.557-6.058-15.274-12.634a19.654,19.654,0,0,0-2.64,10.139c0,5.523,2.365,7.9,6.981,7.9,3.158,0,7.24-2.106,10.933-5.394Zm2.235-2.365c4.341-4.875,7.775-11.063,7.775-16.975,0-6.851-3.952-10.01-8.034-10.01-3.693,0-8.828,2.365-11.84,6.058a23.853,23.853,0,0,1,12.115-3.823c1.182,0,2.106.259,2.106,1.053s-.518.923-1.442,1.053a25.746,25.746,0,0,0-15.4,8.552c0,7.629,6.446,13.427,14.739,14.092Z" transform="translate(156.834 101.666)" fill="#fff"/>
  </g>
</svg>
