<svg xmlns="http://www.w3.org/2000/svg" xmlns:xlink="http://www.w3.org/1999/xlink" width="494" height="555" viewBox="0 0 494 555">
  <defs>
    <clipPath id="clip-path">
      <rect id="Rectangle_210" data-name="Rectangle 210" width="494" height="555" transform="translate(713 5829)" fill="#00483e"/>
    </clipPath>
    <clipPath id="clip-path-2">
      <rect id="Rectangle_205" data-name="Rectangle 205" width="2163.013" height="426.26" transform="translate(0 0)" fill="#00483e"/>
    </clipPath>
  </defs>
  <g id="Mask_Group_3" data-name="Mask Group 3" transform="translate(-713 -5829)" opacity="0.1" clip-path="url(#clip-path)">
    <g id="Group_75" data-name="Group 75" transform="matrix(-1, -0.017, 0.017, -1, 2046.622, 6372.102)" opacity="0.727">
      <g id="Group_69" data-name="Group 69" transform="translate(0 0)" clip-path="url(#clip-path-2)">
        <path id="Path_159" data-name="Path 159" d="M1895.475,353.739a602.9,602.9,0,0,0,103.947-10.861,640.207,640.207,0,0,0,100.9-28.254,660.117,660.117,0,0,0,62.691-27V290.3a662.489,662.489,0,0,1-61.856,26.575,642.535,642.535,0,0,1-101.28,28.36,605.247,605.247,0,0,1-104.362,10.9,565.965,565.965,0,0,1-104.877-8.006c-53.1-9.139-107.981-25.7-167.153-50.469-21.559,15.032-43.829,30.509-66.615,43.78-26.11,15.207-50.186,25.864-73.6,32.578a270.185,270.185,0,0,1-80.338,10.025c-25.505-.547-52.642-4.408-80.655-11.477-46.328-11.69-96.679-32.421-153.932-63.376-13.727-7.422-27.6-15.179-41.226-22.854-25.905,4.392-51.053,7.479-76.081,9.352-50.513,3.78-101.8,2.731-156.789-3.2-48.873-5.275-99.5-14.312-154.758-27.625-50.263-12.109-100.442-26.874-150.18-42.852-22.007,7.868-43.642,16.129-64.728,24.289l-2.921,1.131c-26.54,10.272-53.3,20.628-80.267,30.288a776.4,776.4,0,0,1-120.364,70.412A826.211,826.211,0,0,1,97.685,416.606,838.582,838.582,0,0,1,0,426.259v-2.405a836.144,836.144,0,0,0,97.309-9.622A823.849,823.849,0,0,0,320,345.96,775.7,775.7,0,0,0,433,280.7c-82.375,28.987-166.729,50.738-252.94,43.1a305.594,305.594,0,0,1-87.665-21.381,299.944,299.944,0,0,1-77.7-45.707Q7.016,250.424,0,243.764v-3.329q7.695,7.432,16.217,14.415A297.527,297.527,0,0,0,93.293,300.19,303.192,303.192,0,0,0,180.268,321.4c88.564,7.851,175.317-15.527,260-45.835A734.35,734.35,0,0,0,512.934,216.3q7.68-7.133,15.258-14.516c-30.941-10.5-61.651-21.239-92.042-31.869-9.947-3.479-20.233-7.078-30.329-10.6-43.532-15.177-100.929-34.809-158.869-52.059-59.076-17.588-112.081-30.8-162.044-40.4Q41.241,58.471,0,53.713v-2.42Q41.506,56.07,85.36,64.5c50.043,9.614,103.124,22.848,162.277,40.458,57.986,17.264,115.418,36.908,158.975,52.093,10.1,3.52,20.383,7.118,30.331,10.6,30.765,10.761,61.856,21.637,93.181,32.256,11.361-11.088,22.53-22.421,33.449-33.5,37.091-37.644,75.445-76.57,120.761-105.247a369.106,369.106,0,0,1,89.494-40.764A442.814,442.814,0,0,1,870.865,2.628a542.077,542.077,0,0,1,99.924,2.241,626.105,626.105,0,0,1,98.178,19.263,831.036,831.036,0,0,1,85.983,29.4c26.462,10.6,53.584,22.8,82.917,37.272,54.446,26.869,108.235,57.636,160.254,87.391,8.785,5.024,17.849,10.209,26.8,15.306,25.258-9.919,50.32-20.021,75.09-30.005,26.6-10.723,54.111-21.811,81.165-32.389,65.656-25.672,125.168-46.646,181.937-64.118,66.164-20.364,127.344-35.632,187.039-46.677C2015.8,8.161,2079.565,1.395,2139.664.2q9.861-.2,19.681-.2,1.835,0,3.668.009v2.4q-11.618-.044-23.3.187c-59.968,1.2-123.6,7.949-189.125,20.072-59.6,11.028-120.695,26.274-186.769,46.611-56.711,17.455-116.169,38.409-181.769,64.06-27.043,10.574-54.545,21.659-81.141,32.38-24.187,9.749-48.651,19.609-73.306,29.3,55.39,31.525,114.962,64.359,175.57,91.263q10.1,4.482,20.023,8.651l.26-.181c29.383-20.49,59.767-41.676,92.077-57.866a386.93,386.93,0,0,1,106.41-34.8,463.944,463.944,0,0,1,112.243-5.434c72.585,5.021,148.333,25.868,219.055,60.286q4.9,2.383,9.773,4.846v2.693q-5.4-2.736-10.824-5.378c-70.448-34.284-145.89-55.049-218.17-60.05a461.464,461.464,0,0,0-111.661,5.4,384.51,384.51,0,0,0-105.75,34.581c-31.792,15.929-61.781,36.772-90.787,57,58.466,24.374,112.725,40.693,165.224,49.728a563.617,563.617,0,0,0,104.431,7.972M740.051,262.529C795.213,275.818,845.735,284.837,894.5,290.1c54.844,5.92,105.987,6.966,156.352,3.2,24.007-1.8,48.128-4.715,72.927-8.833l-8.2-4.629c-38.758-21.874-78.836-44.493-119.564-62.8A565.063,565.063,0,0,0,933.9,193.09a401.382,401.382,0,0,0-64.762-14.937c-52.876-7.508-110.017-3.656-174.691,11.776-34.229,8.169-68.232,18.985-101.412,30.757,48.71,15.594,97.829,29.994,147.015,41.843M514.57,218.064a735.421,735.421,0,0,1-66.127,54.557c24.29-8.828,48.408-18.162,72.348-27.429l2.921-1.13c20.162-7.8,40.825-15.7,61.84-23.257q-27.5-8.872-54.8-18.151-8.027,7.815-16.18,15.41m882.359-37.787c-51.987-29.736-105.745-60.485-160.125-87.321-29.277-14.448-56.344-26.615-82.748-37.2a828.709,828.709,0,0,0-85.736-29.313,623.657,623.657,0,0,0-97.8-19.189,539.583,539.583,0,0,0-99.479-2.233,440.408,440.408,0,0,0-96.509,17.665,366.712,366.712,0,0,0-88.911,40.5c-45.084,28.53-83.339,67.356-120.335,104.9-10.648,10.807-21.533,21.851-32.607,32.682q28.18,9.536,56.589,18.707c34.186-12.2,69.273-23.449,104.624-31.884,64.971-15.5,122.406-19.369,175.585-11.818A403.65,403.65,0,0,1,934.623,190.8,567.525,567.525,0,0,1,997,214.847c40.828,18.349,80.954,41,119.759,62.9q5.362,3.026,10.793,6.087c12.712-2.168,25.608-4.648,38.766-7.457,35.8-7.645,72.716-17.547,112.845-30.272,47.9-15.188,95.722-33,142.877-51.476-8.4-4.787-16.88-9.638-25.113-14.348M1602.2,288.485c-61.038-27.1-121-60.178-176.7-91.892l-.769-.438c-47.779,18.749-96.263,36.835-144.835,52.238-40.2,12.748-77.188,22.67-113.069,30.33q-18.28,3.9-35.95,6.975c12.787,7.195,25.767,14.438,38.615,21.384,57.074,30.859,107.244,51.518,153.376,63.159,27.838,7.025,54.794,10.862,80.119,11.4a267.787,267.787,0,0,0,79.623-9.932c23.223-6.66,47.12-17.24,73.056-32.345,22.262-12.967,44.071-28.073,65.2-42.8q-9.26-3.907-18.665-8.081" transform="translate(0 0)" fill="#00483e"/>
      </g>
    </g>
  </g>
</svg>
