<svg xmlns="http://www.w3.org/2000/svg" xmlns:xlink="http://www.w3.org/1999/xlink" width="494" height="555" viewBox="0 0 494 555">
  <defs>
    <clipPath id="clip-path">
      <rect id="Rectangle_207" data-name="Rectangle 207" width="494" height="555" transform="translate(202 5647)" fill="#00483e"/>
    </clipPath>
  </defs>
  <g id="Mask_Group_2" data-name="Mask Group 2" transform="translate(-202 -5647)" opacity="0.097" clip-path="url(#clip-path)">
    <path id="Path_159" data-name="Path 159" d="M959.831,36.724a305.3,305.3,0,0,1,52.637,5.5,324.188,324.188,0,0,1,51.094,14.307A334.278,334.278,0,0,1,1095.306,70.2V68.847a335.471,335.471,0,0,0-31.323-13.457A325.365,325.365,0,0,0,1012.7,41.029a306.483,306.483,0,0,0-52.847-5.522,286.592,286.592,0,0,0-53.108,4.054c-26.889,4.628-54.679,13.013-84.643,25.556-10.917-7.612-22.194-15.449-33.732-22.169-13.222-7.7-25.413-13.1-37.271-16.5a136.816,136.816,0,0,0-40.681-5.076,183.922,183.922,0,0,0-40.842,5.812c-23.46,5.92-48.956,16.417-77.948,32.092-6.951,3.758-13.975,7.686-20.876,11.573-13.118-2.224-25.852-3.787-38.526-4.736a432.1,432.1,0,0,0-79.395,1.623,614.108,614.108,0,0,0-78.366,13.989c-25.452,6.132-50.862,13.609-76.048,21.7-11.144-3.984-22.1-8.167-32.777-12.3l-1.479-.573c-13.439-5.2-26.989-10.446-40.646-15.337a393.151,393.151,0,0,0-60.95-35.655A418.377,418.377,0,0,0,49.465,4.889,424.642,424.642,0,0,0,0,0V1.219A423.406,423.406,0,0,1,49.275,6.091,417.18,417.18,0,0,1,162.043,40.663a392.8,392.8,0,0,1,57.218,33.045C177.547,59.029,134.833,48.015,91.177,51.885A154.747,154.747,0,0,0,46.785,62.712,151.886,151.886,0,0,0,7.441,85.857Q3.553,89.041,0,92.413V94.1q3.9-3.763,8.212-7.3A150.662,150.662,0,0,1,47.242,63.84,153.53,153.53,0,0,1,91.284,53.1c44.847-3.975,88.777,7.863,131.66,23.21a371.86,371.86,0,0,1,36.8,30.011q3.889,3.612,7.726,7.351c-15.668,5.316-31.219,10.755-46.608,16.138-5.037,1.762-10.246,3.584-15.358,5.366-22.044,7.685-51.109,17.626-80.448,26.361C95.136,170.441,68.3,177.133,43,181.993q-22.112,4.248-43,6.657v1.225q21.018-2.419,43.225-6.688c25.341-4.868,52.22-11.57,82.174-20.487,29.363-8.742,58.446-18.689,80.5-26.379,5.113-1.782,10.322-3.6,15.359-5.366,15.579-5.449,31.323-10.956,47.185-16.334,5.753,5.615,11.409,11.354,16.938,16.966,18.782,19.062,38.2,38.773,61.151,53.295a186.907,186.907,0,0,0,45.318,20.642,224.231,224.231,0,0,0,49.137,8.995,274.5,274.5,0,0,0,50.6-1.135A317.046,317.046,0,0,0,541.3,203.63a420.813,420.813,0,0,0,43.54-14.886c13.4-5.37,27.134-11.544,41.988-18.874,27.57-13.606,54.808-29.186,81.15-44.253,4.449-2.544,9.039-5.17,13.57-7.751,12.79,5.023,25.481,10.138,38.024,15.194,13.471,5.43,27.4,11.045,41.1,16.4,33.247,13,63.383,23.62,92.129,32.468a838.874,838.874,0,0,0,94.713,23.636,595.669,595.669,0,0,0,95.966,10.184q4.993.1,9.966.1.929,0,1.857,0v-1.217q-5.883.022-11.8-.095a594.449,594.449,0,0,1-95.769-10.164,837.7,837.7,0,0,1-94.576-23.6c-28.717-8.839-58.825-19.45-92.044-32.439-13.694-5.354-27.62-10.968-41.088-16.4C747.782,127,735.393,122,722.909,117.094c28.048-15.964,58.215-32.59,88.905-46.214q5.113-2.27,10.139-4.381l.132.092c14.879,10.376,30.265,21.1,46.626,29.3a195.934,195.934,0,0,0,53.884,17.622,234.932,234.932,0,0,0,56.838,2.752c36.756-2.543,75.113-13.1,110.925-30.528q2.479-1.207,4.949-2.454V81.921q-2.736,1.385-5.481,2.723c-35.674,17.361-73.876,27.876-110.477,30.408a233.677,233.677,0,0,1-56.543-2.736A194.708,194.708,0,0,1,869.256,94.8c-16.1-8.066-31.285-18.621-45.973-28.862,29.606-12.343,57.082-20.606,83.666-25.181a285.406,285.406,0,0,1,52.882-4.037M374.747,82.911a612.934,612.934,0,0,1,78.212-13.962,430.929,430.929,0,0,1,79.174-1.619c12.157.91,24.371,2.387,36.929,4.473l-4.154,2.344c-19.626,11.076-39.921,22.53-60.545,31.8a286.135,286.135,0,0,1-31.454,12.127,203.252,203.252,0,0,1-32.794,7.564c-26.775,3.8-55.711,1.851-88.46-5.963A505.523,505.523,0,0,1,300.3,104.1c24.666-7.9,49.539-15.188,74.446-21.189M260.568,105.427A372.4,372.4,0,0,0,227.083,77.8c12.3,4.47,24.513,9.2,36.636,13.889l1.479.572c10.21,3.951,20.673,7.95,31.315,11.777q-13.927,4.492-27.751,9.192-4.065-3.957-8.193-7.8m446.809,19.134c-26.325,15.058-53.547,30.628-81.084,44.218-14.825,7.316-28.531,13.477-41.9,18.836a419.643,419.643,0,0,1-43.415,14.844,315.8,315.8,0,0,1-49.524,9.717,273.235,273.235,0,0,1-50.374,1.131,223.014,223.014,0,0,1-48.87-8.945,185.7,185.7,0,0,1-45.023-20.506c-22.829-14.447-42.2-34.108-60.935-53.121-5.392-5.472-10.9-11.065-16.512-16.549q14.27-4.829,28.656-9.473a512.4,512.4,0,0,0,52.979,16.146c32.9,7.851,61.984,9.808,88.913,5.984a204.4,204.4,0,0,0,32.989-7.608,287.384,287.384,0,0,0,31.587-12.178c20.674-9.292,40.993-20.76,60.644-31.85q2.715-1.532,5.465-3.082c6.437,1.1,12.967,2.354,19.63,3.776,18.13,3.871,36.822,8.885,57.142,15.329C672,98.92,696.215,107.938,720.093,117.3c-4.253,2.424-8.547,4.88-12.717,7.265M811.32,69.767c-30.909,13.721-61.271,30.473-89.478,46.532l-.39.222c-24.194-9.494-48.746-18.653-73.342-26.452-20.358-6.455-39.087-11.479-57.256-15.359q-9.257-1.977-18.2-3.532c6.475-3.643,13.048-7.311,19.554-10.829,28.9-15.626,54.306-26.088,77.667-31.983a182.717,182.717,0,0,1,40.571-5.775,135.6,135.6,0,0,1,40.32,5.029c11.76,3.373,23.861,8.73,36.994,16.379,11.273,6.566,22.316,14.216,33.017,21.675q-4.689,1.978-9.452,4.092" transform="matrix(0.891, 0.454, -0.454, 0.891, 75.237, 5748.462)" fill="#00483e"/>
  </g>
</svg>
