<svg xmlns="http://www.w3.org/2000/svg" width="1105.765" height="772.396" viewBox="0 0 1105.765 772.396">
  <g id="Group_94" data-name="Group 94" transform="translate(649.285 -690)" opacity="0.081">
    <path id="Path_55" data-name="Path 55" d="M164.946,263.176a40.425,40.425,0,0,1-6.24,1.431c-9.87,1.185-14.262-7.671-15.693-21.675-1.941-15.607-.252-37.54,1.185-59.222,3.206-41.84,6.326-83.262-16.534-86.548a4.161,4.161,0,0,0-4.809,3.538,4.574,4.574,0,0,0,3.538,4.809c15.189,2.2,12.321,39.733,9.453,77.777-1.689,21.854-3.378,44.29-1.265,60.825,2.193,18.813,8.943,30.876,25.054,28.935a54.419,54.419,0,0,0,7.671-1.689c33.916-10.208,82.672-62.256,131.176-130.666-2.868-.762-5.645-1.6-8.513-2.451-46.821,65.714-93.218,115.317-125.022,124.936" transform="translate(-306.373 1189.146)" fill="#fff"/>
    <path id="Path_56" data-name="Path 56" d="M129.076,101.514a4.274,4.274,0,0,0,3.876,4.557c29.611,2.61,67.4-15.189,106.632-33.493,47.828-22.609,97.941-46.145,133.787-31.969A103.342,103.342,0,0,1,407.963,63.47,79.156,79.156,0,0,1,427.28,96.7a61.26,61.26,0,0,1,2.113,10.036c7,57.791-44.039,178.839-108.236,289.015-16.872,28.763-34.672,56.771-52.552,82.752,2.782.848,5.651,1.6,8.6,2.365,17.462-25.477,34.758-52.9,51.127-80.983,65.2-111.442,116.5-234.431,109.495-294.076a63.461,63.461,0,0,0-2.365-11.805,88.8,88.8,0,0,0-21.424-36.361A106.643,106.643,0,0,0,376.5,32.932C337.274,17.239,285.471,41.537,235.96,64.9,197.91,82.7,161.131,100,133.627,97.632a4.129,4.129,0,0,0-4.551,3.882" transform="translate(-274.384 833.695)" fill="#fff"/>
    <path id="Path_57" data-name="Path 57" d="M1137.768,681.118c-.006,0-55.193-.534-149.068-5.473-66.807-3.513-122.3-13.519-169.748-22.075-72.4-13.058-138.983-25.434-221.287-58.368-23.407-9.367-42.46-18.15-55.573-24.464,0,0-13.936-7.082-32.375-14.5a75.247,75.247,0,0,0,3.219-15.116c3.992-40.3-37.958-57.391-37.958-57.391C493.25,482.2,590.2,455.55,596.86,388.154c4.607-46.52-29.709-81-111.393-89.085C374.48,288.1,273.394,337.66,266.392,397.262c-3.624,29.23,16.246,45.255,38.953,47.5,17.941,1.775,31.275-5.786,31.539-8.347a1.747,1.747,0,0,0-1.658-2.015c-2.561-.246-11.989,5.1-25.539,3.759-21.6-2.131-35.348-16.442-33-40.249,5.251-53.123,104.206-99.925,207.884-89.662,74.35,7.346,106.841,37.921,102.751,79.319-6.234,63.012-104.231,92.524-134.984,89.5-4.41-.448-15.134-4.091-21.368-4.7-8.046-.8-13.512,2-13.948,6.382-.4,4.041,2.543,8.034,12.419,9,8.814.878,22.062-2.26,27.916-1.683,7.7.768,49.579,18.592,46.053,54.118a61.965,61.965,0,0,1-2.727,12.567c-4.95-1.849-10.024-3.667-15.226-5.319a81.769,81.769,0,0,0-12.794-2.985,80.674,80.674,0,0,0-12.1-.872l-5.38-.11c-7.524-.442-14.882-.6-22.007-.448l-6.971-.147c-.092.135-.19.264-.283.4-41.576,2.113-73.361,15.165-76.063,42.4-.86,8.648,2.629,17.591,10.46,24.7-16.086,23.284-28.929,48.866-39.923,71.045-12.511,25.514-22.855,46.213-32.479,51.741l.719-.719c-9.385-6.253-31.288-36.336-58.479-80.86-27.43-45-59.676-104.427-89.035-168.686-69.061-151.6-122-330.161-54.628-408.122,116.951-135.242,262.058-32,365.779,41.864,43.793,31.288,80.615,57.52,105.877,58.958a4.112,4.112,0,0,0,4.57-3.845,4.487,4.487,0,0,0-4.085-4.576c-22.867-1.443-58.724-26.951-101.313-57.269C350.963,34.094,202.238-71.783,79.993,69.227,9.734,150.32,63.151,332.242,133.416,486.261a1702.016,1702.016,0,0,0,89.521,169.65c27.676,45.482,50.77,76.764,60.88,83.5,3.132,2.162,6.019,2.647,8.421,1.2,11.8-6.984,22.621-28.88,35.857-55.586,10.767-21.724,23.457-46.827,39.193-69.6,6.984,4.14,15.975,7.192,27.258,8.3,46.526,4.6,95.306-20.318,112.345-59.855,12.407,5.62,28.923,13.568,55.076,25.287,8.74,3.919,17.548,7.7,26.3,11.6,28.389,12.683,61.568,23.653,94.293,32.891l-.068.1c2.869.841,5.737,1.6,8.605,2.359l.031-.043c75.584,20.7,146.193,31.8,146.193,31.8a1023.01,1023.01,0,0,0,142.588,17.9c92.248,5.055,172.9-3.028,172.857-4.226-.006-.338-6.652-.356-15-.436M395.775,614.992c-26.368-2.61-36.828-16.59-35.593-29.046,2.8-28.3,52.257-40.354,105.515-35.4,1.622.264,3.415.5,4.846.774a127.185,127.185,0,0,1,27.406,8.63c-15.613,34.9-60.886,59.13-102.173,55.045" transform="translate(-696.287 690)" fill="#fff"/>
    <path id="Path_58" data-name="Path 58" d="M102.333,246.045c6.332-64.111,110.662-165.123,148.73-179.858,4.607-1.763,5.872-3.126,6.087-5.319A4.834,4.834,0,0,0,252.814,56c-21.982-2.162-152.44,116.245-159.141,184.01-.5,5.122,2.475,8.765,5.767,9.078,1.83.184,2.678-.848,2.893-3.04" transform="translate(-456.582 977.792)" fill="#fff"/>
  </g>
</svg>
