<svg xmlns="http://www.w3.org/2000/svg" width="1116.028" height="779.565" viewBox="0 0 1116.028 779.565">
  <g id="Group_160" data-name="Group 160" transform="translate(649.285 -690)" opacity="0.304">
    <path id="Path_55" data-name="Path 55" d="M165.337,264.718a40.8,40.8,0,0,1-6.3,1.444c-9.962,1.2-14.394-7.743-15.839-21.876-1.959-15.752-.254-37.889,1.2-59.772,3.236-42.228,6.385-84.035-16.688-87.351a4.2,4.2,0,0,0-4.854,3.571,4.617,4.617,0,0,0,3.571,4.854c15.33,2.219,12.435,40.1,9.54,78.5-1.7,22.056-3.409,44.7-1.277,61.389,2.213,18.988,9.026,31.163,25.286,29.2a54.923,54.923,0,0,0,7.743-1.7c34.231-10.3,83.44-62.834,132.394-131.879-2.895-.769-5.7-1.618-8.592-2.473-47.256,66.324-94.083,116.388-126.182,126.1" transform="translate(-302.05 1194.679)" fill="#004952"/>
    <path id="Path_56" data-name="Path 56" d="M129.076,102.2a4.313,4.313,0,0,0,3.912,4.6c29.886,2.635,68.029-15.33,107.622-33.8,48.272-22.819,98.85-46.574,135.028-32.266A104.3,104.3,0,0,1,410.551,63.8a79.89,79.89,0,0,1,19.5,33.543,61.83,61.83,0,0,1,2.133,10.129c7.061,58.327-44.448,180.5-109.24,291.7-17.029,29.03-34.994,57.3-53.039,83.52,2.808.855,5.7,1.618,8.679,2.387,17.624-25.714,35.081-53.386,51.6-81.735,65.81-112.476,117.578-236.606,110.511-296.805A64.051,64.051,0,0,0,438.3,94.622a89.627,89.627,0,0,0-21.622-36.7,107.633,107.633,0,0,0-37.889-24.945c-39.587-15.839-91.87,8.685-141.841,32.266-38.4,17.965-75.523,35.421-103.283,33.035a4.167,4.167,0,0,0-4.594,3.918" transform="translate(-269.707 835.288)" fill="#004952"/>
    <path id="Path_57" data-name="Path 57" d="M1147.891,687.44c-.006,0-55.705-.539-150.452-5.523C930.012,678.37,874,668.272,826.116,659.637c-73.075-13.179-140.273-25.671-223.34-58.91-23.625-9.454-42.854-18.318-56.089-24.691,0,0-14.066-7.148-32.675-14.636a75.945,75.945,0,0,0,3.248-15.256c4.029-40.672-38.31-57.924-38.31-57.924,18.442-1.544,116.289-28.441,123.015-96.464C606.613,344.8,571.979,310,489.537,301.845c-112.017-11.072-214.042,38.949-221.109,99.1-3.657,29.5,16.4,45.675,39.315,47.944,18.108,1.792,31.566-5.84,31.832-8.424a1.763,1.763,0,0,0-1.674-2.033c-2.585-.248-12.1,5.151-25.776,3.794-21.8-2.151-35.676-16.6-33.308-40.623,5.3-53.616,105.174-100.853,209.814-90.494,75.04,7.414,107.833,38.273,103.7,80.055-6.292,63.6-105.2,93.383-136.237,90.327-4.451-.453-15.275-4.129-21.567-4.749-8.121-.806-13.638,2.015-14.078,6.441-.4,4.079,2.566,8.108,12.534,9.082,8.9.886,22.267-2.281,28.175-1.7,7.767.775,50.039,18.765,46.481,54.62a62.543,62.543,0,0,1-2.752,12.683c-5-1.866-10.117-3.7-15.368-5.369a82.526,82.526,0,0,0-12.913-3.013,81.406,81.406,0,0,0-12.212-.88l-5.43-.112c-7.594-.446-15.02-.6-22.211-.453l-7.036-.149c-.093.136-.192.266-.285.4-41.962,2.133-74.042,15.305-76.769,42.8-.868,8.728,2.653,17.754,10.557,24.933-16.235,23.5-29.2,49.32-40.294,71.7-12.628,25.751-23.067,46.642-32.781,52.221l.725-.725c-9.472-6.311-31.578-36.674-59.021-81.611-27.685-45.414-60.23-105.4-89.862-170.251C72.29,334.359,18.86,154.145,86.858,75.461c118.037-136.5,264.49-32.3,369.173,42.253,44.2,31.578,81.363,58.054,106.86,59.5a4.151,4.151,0,0,0,4.612-3.881,4.528,4.528,0,0,0-4.122-4.618c-23.079-1.457-59.269-27.2-102.254-57.8C353.784,34.41,203.679-72.449,80.3,69.869c-70.911,81.846-17,265.457,53.92,420.9A1717.8,1717.8,0,0,0,224.57,662c27.933,45.9,51.242,77.476,61.445,84.277,3.161,2.182,6.075,2.672,8.5,1.215,11.908-7.048,22.831-29.148,36.19-56.1,10.867-21.926,23.674-47.262,39.556-70.242,7.048,4.178,16.124,7.259,27.511,8.381,46.958,4.643,96.191-20.507,113.387-60.41,12.522,5.672,29.191,13.694,55.587,25.522,8.821,3.955,17.711,7.767,26.544,11.71,28.652,12.8,62.139,23.873,95.168,33.2l-.068.1c2.9.849,5.79,1.618,8.685,2.38l.031-.043c76.286,20.891,147.55,32.1,147.55,32.1a1032.5,1032.5,0,0,0,143.911,18.064c93.1,5.1,174.5-3.056,174.461-4.265-.006-.341-6.714-.359-15.138-.44M399.012,620.7c-26.613-2.635-37.17-16.744-35.924-29.315,2.827-28.565,52.742-40.728,106.494-35.732,1.637.266,3.447.5,4.891.781a128.366,128.366,0,0,1,27.66,8.71c-15.758,35.223-61.451,59.679-103.122,55.556" transform="translate(-696.287 690)" fill="#004952"/>
    <path id="Path_58" data-name="Path 58" d="M102.414,247.809C108.805,183.1,214.1,81.154,252.525,66.282c4.649-1.779,5.926-3.155,6.143-5.368A4.879,4.879,0,0,0,254.291,56C232.1,53.816,100.437,173.321,93.673,241.716c-.5,5.17,2.5,8.846,5.821,9.162,1.847.186,2.7-.855,2.92-3.069" transform="translate(-453.925 980.982)" fill="#004952"/>
  </g>
</svg>
