<svg xmlns="http://www.w3.org/2000/svg" width="24.198" height="16.636" viewBox="0 0 24.198 16.636">
  <g id="Group_8424" data-name="Group 8424" transform="translate(-1270 -1041.654)">
    <path id="Path_19386" data-name="Path 19386" d="M347.55,160.9v10.532l-8.158-5.157Z" transform="translate(946.648 883.825)" fill="#68bc95"/>
    <path id="Path_19387" data-name="Path 19387" d="M8.158,166.271,0,171.428V160.9Z" transform="translate(1270 883.825)" fill="#68bc95"/>
    <path id="Path_19388" data-name="Path 19388" d="M25.067,97.287A1.494,1.494,0,0,0,23.6,96H2.427A1.494,1.494,0,0,0,.96,97.287l12.054,7.942Z" transform="translate(1269.086 945.654)" fill="#68bc95"/>
    <path id="Path_19389" data-name="Path 19389" d="M13.491,295.331a.759.759,0,0,1-.832,0l-2.14-1.411-9.495,6.006A1.491,1.491,0,0,0,2.488,301.2H23.661a1.491,1.491,0,0,0,1.464-1.276l-9.495-6Z" transform="translate(1269.023 757.088)" fill="#68bc95"/>
  </g>
</svg>
